# xmcd CD database file
#
# Track frame offsets:
#	150
#	28590
#	48384
#	74536
#	91306
#	110681
#	126194
#	148397
#	167873
#	183137
#	202338
#	224073
#	252854
#	273577
#	293971
#
# Disc length: 4123 seconds
#
# Revision: 0
# Processed by: cddbd v1.5.2PL0 Copyright (c) Steve Scherf et al.
# Submitted via: CDex 1.51
#
DISCID=fc10190f
DTITLE=VA - Pinacolada 3 - CD 1
DYEAR=2005
DGENRE=Jazz
TTITLE0=Salome de Bahia - Taj Mahal
TTITLE1=Madrid De Los Austrias - Mas Amor
TTITLE2=Natacha Atlas - Yalla Chant
TTITLE3=Slow Train Soul - Inna City Woman
TTITLE4=The Brand New Heavies - Keep On Shining
TTITLE5=I Maniaci Dei Dischi - Our House
TTITLE6=Dinah Washington - Is You Is Or Is You Ain't My Baby (Rae and Christian Remix)
TTITLE7=Billie Holiday - Speak Low (Bent Remix)
TTITLE8=De Phazz - Astrud Astronette
TTITLE9=Feist - Inside And Out
TTITLE10=Carlos Campos and Benjamin Franklin - Amor De Siempre
TTITLE11=Gabin and Ana Caril Obiols - Azul Anil
TTITLE12=Mystic Diversions - Sweet
TTITLE13=Parov Stelar - Tell Me
TTITLE14=3-11 Porter - Surround Me With Your Love  (Single Version)
EXTD=YEAR: 2005
EXTT0=
EXTT1=
EXTT2=
EXTT3=
EXTT4=
EXTT5=
EXTT6=
EXTT7=
EXTT8=
EXTT9=
EXTT10=
EXTT11=
EXTT12=
EXTT13=
EXTT14=
PLAYORDER=
